# 3ds Max Wavefront OBJ Exporter v0.97b - (c)2007 guruware
# File Created: 09.09.2018 12:25:18

#
# object Line002
#

v  -0.0640 0.0353 -0.1403
v  -0.0640 -4.1107 -0.8311
v  -0.0640 -4.1283 -0.6345
v  -0.0640 0.0029 0.0539
v  0.0640 0.0029 0.0539
v  0.0640 -4.1283 -0.6345
v  0.0640 -4.1107 -0.8311
v  0.0640 0.0353 -0.1403
v  -0.0640 -9.7845 -0.9084
v  -0.0640 -9.7709 -0.7114
v  0.0640 -9.7709 -0.7114
v  0.0640 -9.7845 -0.9084
v  -0.0640 -14.8527 -0.1359
v  -0.0640 -14.8417 0.0615
v  0.0640 -14.8417 0.0615
v  0.0640 -14.8527 -0.1359
v  -0.0640 -17.0519 -0.2245
v  -0.0640 -17.0503 -0.0274
v  0.0640 -17.0503 -0.0274
v  0.0640 -17.0519 -0.2245
v  -0.0640 -19.2549 -0.6358
v  0.0640 -19.2549 -0.6358
v  0.8740 -3.8854 1.3903
v  0.0953 -4.4886 0.9579
v  0.0647 -5.9204 1.7688
v  1.0468 -2.9249 0.9445
v  0.0628 -3.5272 0.3811
v  0.5497 -2.5311 0.4017
v  0.0389 -2.9307 0.0203
v  -0.0626 -4.5361 0.8862
v  -1.0650 -4.4753 0.5116
v  -0.0968 -3.5767 0.3097
v  -1.3028 -3.6448 -0.1163
v  -0.1126 -2.9770 -0.0481
v  -0.8431 -2.9567 -0.2273
v  -0.0894 -2.5160 -0.4648
v  0.0992 -2.4583 -0.3796
v  -1.4635 -2.1499 -1.1033
v  -0.4605 -2.4873 -1.2968
v  -0.5613 -3.9530 -2.0384
v  -1.5691 -1.2157 -0.5863
v  -0.3336 -1.4861 -0.8072
v  -0.9700 -0.6502 -0.4521
v  -0.2503 -0.8638 -0.5035
v  -0.2869 -2.4856 -1.3436
v  0.6691 -2.1359 -1.6789
v  -0.1584 -1.4860 -0.8553
v  1.0140 -1.2042 -1.2872
v  -0.0838 -0.8629 -0.5486
v  0.5611 -0.6423 -0.8673
v  0.0353 -0.3758 -0.1809
v  -0.1720 -0.3769 -0.1246
v  0.0864 -8.3681 0.8419
v  -0.5156 -8.7861 0.2835
v  -0.8835 -10.0081 0.8901
v  0.4369 -7.5678 0.5538
v  -0.3031 -7.9589 -0.1610
v  0.1979 -7.1709 0.0075
v  -0.1732 -7.4433 -0.4413
v  -0.6289 -8.8065 0.1899
v  -1.3537 -8.6334 -0.3454
v  -0.4183 -7.9811 -0.2550
v  -1.3134 -7.8950 -0.8843
v  -0.2818 -7.4635 -0.5307
v  -0.8354 -7.3630 -0.8419
v  -0.1168 -7.0671 -0.8548
v  0.0243 -7.0409 -0.7388
v  -1.0694 -11.4377 -0.9707
v  -0.3800 -11.5214 -1.5763
v  -0.4746 -12.8063 -2.1564
v  -1.1113 -10.6535 -0.4916
v  -0.2835 -10.6334 -1.2168
v  -0.7478 -10.0515 -0.6283
v  -0.2204 -10.0783 -0.9950
v  -0.2828 -11.4879 -1.6832
v  0.1668 -11.0187 -2.3310
v  -0.1853 -10.6011 -1.3259
v  0.3884 -10.1504 -2.1459
v  -0.1273 -10.0470 -1.0977
v  0.1375 -9.7535 -1.6047
v  0.0203 -9.5906 -0.8539
v  -0.1006 -9.6313 -0.7206
v  -2.0658 -6.4591 -1.0794
v  -1.2394 -6.9564 -1.6859
v  -1.8876 -8.4271 -2.3568
v  -1.7960 -5.4978 -0.5380
v  -0.7472 -5.9599 -1.2689
v  -1.0711 -5.0079 -0.6614
v  -0.4377 -5.3419 -1.0125
v  -1.0901 -6.9792 -1.8056
v  -0.2526 -6.7428 -2.5349
v  -0.5971 -5.9845 -1.3905
v  0.3964 -5.8462 -2.3032
v  -0.2946 -5.3645 -1.1277
v  0.2304 -5.2137 -1.7088
v  0.0519 -4.8977 -0.8229
v  -0.1239 -4.8699 -0.6814
v  1.0030 -13.0111 1.1872
v  0.3822 -13.6486 0.9478
v  0.6044 -14.7861 1.7558
v  0.9940 -12.2216 0.7151
v  0.1871 -12.8929 0.3838
v  0.4777 -11.9965 0.2725
v  0.0621 -12.4231 0.0304
v  0.2534 -13.7105 0.9080
v  -0.6316 -13.8049 0.6850
v  0.0569 -12.9571 0.3447
v  -0.9897 -13.1899 0.1098
v  -0.0611 -12.4831 -0.0072
v  -0.6937 -12.5672 -0.0853
v  -0.1375 -12.1278 -0.4040
v  0.0224 -12.0499 -0.3551
v  -0.3127 -17.8110 0.6154
v  -0.2636 -18.0016 0.0407
v  -0.2990 -18.9400 0.0521
v  -0.2786 -17.2117 0.7165
v  -0.2437 -17.3632 0.0055
v  -0.3046 -16.8724 0.3847
v  -0.2317 -16.9685 -0.0190
v  -0.2740 -18.0052 -0.0430
v  -0.4628 -17.8710 -0.6003
v  -0.2545 -17.3687 -0.0801
v  -0.4632 -17.2915 -0.7698
v  -0.2416 -16.9728 -0.0987
v  -0.4122 -16.9178 -0.4803
v  -0.1651 -16.1412 -0.1474
v  -0.1500 -16.1348 -0.0257
v  -1.2532 -15.6882 -0.6689
v  -0.4419 -15.9140 -1.0428
v  -0.5704 -17.2094 -1.5921
v  -1.3047 -14.8742 -0.2434
v  -0.3118 -15.0262 -0.6936
v  -0.8260 -14.3428 -0.2826
v  -0.2270 -14.4719 -0.4772
v  -0.3141 -15.9027 -1.1172
v  0.3710 -15.5510 -1.6160
v  -0.1826 -15.0164 -0.7698
v  0.6661 -14.7132 -1.3963
v  -0.1046 -14.4618 -0.5488
v  0.3375 -14.2467 -0.9630
v  0.0379 -14.0156 -0.2841
v  -0.1210 -14.0287 -0.1912
v  0.1588 -6.0693 1.6819
v  0.2079 -4.6297 0.8796
v  1.0011 -4.0229 1.3227
v  0.1747 -3.6662 0.3011
v  1.1685 -3.0548 0.8677
v  0.6753 -2.6500 0.3234
v  0.1513 -3.0822 -0.0516
v  -1.0114 -4.6380 0.4138
v  0.0126 -4.6894 0.7914
v  -1.2414 -3.7913 -0.2208
v  -0.0206 -3.7259 0.2128
v  -0.7861 -3.0966 -0.3366
v  -0.0376 -3.1399 -0.1369
v  0.0038 -2.6956 -0.5290
v  0.1925 -2.6380 -0.4438
v  -0.4690 -4.0910 -1.9335
v  -0.3892 -2.6233 -1.1865
v  -1.4105 -2.2873 -0.9920
v  -0.2613 -1.6198 -0.6958
v  -1.5085 -1.3434 -0.4707
v  -0.9142 -0.7681 -0.3321
v  -0.1802 -1.0105 -0.3989
v  0.8018 -2.2760 -1.5920
v  -0.1745 -2.6222 -1.2447
v  1.1408 -1.3298 -1.1891
v  -0.0466 -1.6187 -0.7540
v  0.6924 -0.7599 -0.7678
v  0.0276 -1.0095 -0.4552
v  0.1224 -0.5459 -0.0961
v  -0.0850 -0.5469 -0.0399
v  -0.7648 -10.1509 0.8256
v  -0.3807 -8.9239 0.2327
v  0.2327 -8.5043 0.8055
v  -0.1681 -8.0944 -0.2136
v  0.5815 -7.6956 0.5074
v  0.3481 -7.2884 -0.0388
v  -0.0414 -7.5913 -0.4865
v  -1.2726 -8.7843 -0.4318
v  -0.5268 -8.9510 0.1126
v  -1.2210 -8.0309 -0.9743
v  -0.3142 -8.1216 -0.3337
v  -0.7450 -7.4917 -0.9373
v  -0.1828 -7.6176 -0.6027
v  -0.0091 -7.2405 -0.8990
v  0.1320 -7.2143 -0.7831
v  -0.3275 -12.9144 -2.0835
v  -0.2478 -11.6324 -1.4878
v  -0.9514 -11.5544 -0.8720
v  -0.1505 -10.7418 -1.1278
v  -0.9872 -10.7586 -0.3926
v  -0.6278 -10.1481 -0.5224
v  -0.0895 -10.2004 -0.9115
v  0.3382 -11.1203 -2.2945
v  -0.1226 -11.5903 -1.6258
v  0.5572 -10.2387 -2.0959
v  -0.0254 -10.6996 -1.2658
v  0.3087 -9.8328 -1.5553
v  0.0316 -10.1596 -1.0451
v  0.1605 -9.7325 -0.7977
v  0.0396 -9.7732 -0.6643
v  -1.7944 -8.5984 -2.3738
v  -1.1627 -7.1229 -1.6897
v  -2.0056 -6.6245 -1.0750
v  -0.6688 -6.1243 -1.2721
v  -1.7256 -5.6547 -0.5328
v  -1.0018 -5.1549 -0.6502
v  -0.3660 -5.5185 -1.0210
v  -0.1301 -6.9210 -2.5844
v  -0.9807 -7.1517 -1.8361
v  0.5202 -6.0098 -2.3402
v  -0.4868 -6.1531 -1.4186
v  0.3601 -5.3702 -1.7463
v  -0.1899 -5.5464 -1.1627
v  0.1274 -5.0987 -0.8562
v  -0.0484 -5.0709 -0.7147
v  0.6945 -14.9228 1.6470
v  0.4902 -13.7743 0.8446
v  1.1258 -13.1302 1.0927
v  0.2940 -13.0168 0.2789
v  1.1095 -12.3348 0.6114
v  0.5954 -12.0986 0.1658
v  0.1721 -12.5583 -0.0654
v  -0.5806 -13.9617 0.5715
v  0.3246 -13.8549 0.7940
v  -0.9339 -13.3305 -0.0128
v  0.1284 -13.0975 0.2283
v  -0.6438 -12.7024 -0.2127
v  0.0119 -12.6363 -0.1144
v  -0.0416 -12.2924 -0.4873
v  0.1184 -12.2145 -0.4384
v  -0.1039 -18.9499 0.0284
v  -0.0669 -18.0087 0.0385
v  -0.1167 -17.8200 0.6314
v  -0.0470 -17.3677 0.0024
v  -0.0820 -17.2096 0.7256
v  -0.1086 -16.8599 0.3991
v  -0.0351 -16.9786 -0.0216
v  -0.2781 -17.8881 -0.6664
v  -0.0826 -18.0153 -0.0874
v  -0.2753 -17.2912 -0.8286
v  -0.0626 -17.3743 -0.1236
v  -0.2259 -16.9093 -0.5434
v  -0.0503 -16.9850 -0.1435
v  0.0294 -16.1607 -0.1705
v  0.0445 -16.1543 -0.0489
v  -0.4419 -17.3077 -1.4803
v  -0.3324 -16.0118 -0.9203
v  -1.1610 -15.7889 -0.5407
v  -0.2013 -15.1215 -0.5705
v  -1.2049 -14.9642 -0.1133
v  -0.7307 -14.4232 -0.1473
v  -0.1191 -14.5807 -0.3596
v  0.5340 -15.6489 -1.5319
v  -0.1679 -15.9983 -1.0165
v  0.8247 -14.7966 -1.3004
v  -0.0369 -15.1079 -0.6667
v  0.5001 -14.3216 -0.8671
v  0.0400 -14.5676 -0.4527
v  0.1592 -14.1473 -0.1893
v  0.0003 -14.1604 -0.0964
# 262 vertices

vn -1.0000 -0.0000 -0.0000
vn 1.0000 0.0000 -0.0000
vn -0.6624 0.4021 0.6321
vn -0.5715 0.4112 0.7101
vn -0.4787 0.4497 0.7541
vn -0.6184 0.3543 0.7015
vn -0.5534 0.4147 0.7224
vn -0.6677 0.1593 0.7272
vn -0.5703 0.4646 0.6775
vn -0.3783 0.4703 0.7973
vn -0.2706 0.5220 0.8089
vn -0.3980 0.4622 0.7924
vn -0.3204 0.4453 0.8361
vn -0.3819 0.5221 0.7626
vn -0.2197 0.2968 0.9293
vn -0.4740 0.6034 0.6412
vn -0.0099 0.4751 -0.8799
vn -0.1279 0.4523 -0.8827
vn -0.2339 0.4612 -0.8559
vn -0.0728 0.4101 -0.9091
vn -0.1498 0.4497 -0.8805
vn -0.0007 0.2316 -0.9728
vn -0.1227 0.5072 -0.8531
vn -0.3403 0.4512 -0.8250
vn -0.4406 0.4731 -0.7629
vn -0.3205 0.4488 -0.8342
vn -0.4004 0.4083 -0.8204
vn -0.3298 0.5060 -0.7969
vn -0.4932 0.2296 -0.8391
vn -0.2081 0.6213 -0.7555
vn -0.7520 0.4808 0.4509
vn -0.6851 0.4765 0.5509
vn -0.6036 0.5014 0.6199
vn -0.7348 0.4267 0.5273
vn -0.6706 0.4775 0.5677
vn -0.8145 0.2378 0.5291
vn -0.6682 0.5297 0.5224
vn -0.5168 0.5078 0.6892
vn -0.4103 0.5445 0.7315
vn -0.5353 0.5026 0.6789
vn -0.4752 0.4748 0.7407
vn -0.5044 0.5602 0.6571
vn -0.4221 0.3114 0.8514
vn -0.5493 0.6540 0.5202
vn -0.5791 0.3940 -0.7137
vn -0.6719 0.3429 -0.6565
vn -0.7472 0.3276 -0.5783
vn -0.6300 0.3137 -0.7104
vn -0.6881 0.3353 -0.6434
vn -0.5589 0.1523 -0.8151
vn -0.6659 0.3994 -0.6301
vn -0.8161 0.2943 -0.4974
vn -0.8717 0.2957 -0.3908
vn -0.8040 0.2963 -0.5155
vn -0.8525 0.2386 -0.4651
vn -0.8063 0.3521 -0.4754
vn -0.8950 0.0399 -0.4442
vn -0.7134 0.4954 -0.4956
vn -0.2784 0.5213 -0.8067
vn -0.3899 0.5163 -0.7625
vn -0.4741 0.5393 -0.6959
vn -0.3571 0.4681 -0.8083
vn -0.4094 0.5169 -0.7518
vn -0.3451 0.2855 -0.8941
vn -0.3649 0.5680 -0.7377
vn -0.5601 0.5433 -0.6255
vn -0.6232 0.5760 -0.5289
vn -0.5461 0.5385 -0.6417
vn -0.6195 0.5095 -0.5972
vn -0.5310 0.5942 -0.6041
vn -0.7387 0.3483 -0.5770
vn -0.3860 0.6879 -0.6147
vn -0.6448 0.3786 0.6640
vn -0.5484 0.4080 0.7299
vn -0.4580 0.4627 0.7591
vn -0.5875 0.3449 0.7321
vn -0.5298 0.4152 0.7395
vn -0.6061 0.1468 0.7817
vn -0.5580 0.4573 0.6924
vn -0.3576 0.5010 0.7881
vn -0.2576 0.5675 0.7821
vn -0.3764 0.4900 0.7863
vn -0.2931 0.4882 0.8221
vn -0.3723 0.5478 0.7492
vn -0.1616 0.3641 0.9172
vn -0.4867 0.6021 0.6329
vn -0.9923 0.0641 -0.1060
vn -0.9993 0.0353 0.0119
vn -0.9916 0.0479 0.1199
vn -0.9989 -0.0105 -0.0467
vn -0.9989 0.0328 0.0339
vn -0.9715 -0.1995 -0.1279
vn -0.9986 0.0514 0.0136
vn -0.9721 0.0468 0.2299
vn -0.9369 0.0879 0.3384
vn -0.9769 0.0420 0.2094
vn -0.9569 0.0070 0.2903
vn -0.9721 0.0619 0.2262
vn -0.9084 -0.1715 0.3814
vn -0.9882 0.0978 0.1178
vn -0.2798 0.4223 -0.8622
vn -0.3921 0.3894 -0.8335
vn -0.4880 0.3908 -0.7805
vn -0.3417 0.3507 -0.8719
vn -0.4123 0.3852 -0.8256
vn -0.2703 0.1737 -0.9470
vn -0.3849 0.4462 -0.8080
vn -0.5815 0.3737 -0.7226
vn -0.6644 0.3907 -0.6371
vn -0.5647 0.3726 -0.7364
vn -0.6341 0.3264 -0.7010
vn -0.5694 0.4309 -0.7001
vn -0.7120 0.1379 -0.6885
vn -0.4530 0.5574 -0.6958
vn 0.4782 -0.4512 -0.7535
vn 0.5718 -0.4115 -0.7097
vn 0.6614 -0.4023 -0.6329
vn 0.5535 -0.4144 -0.7224
vn 0.6181 -0.3542 -0.7018
vn 0.6631 -0.1717 -0.7286
vn 0.5712 -0.4640 -0.6771
vn 0.2721 -0.5213 -0.8088
vn 0.3784 -0.4706 -0.7971
vn 0.3208 -0.4451 -0.8360
vn 0.3985 -0.4618 -0.7924
vn 0.2291 -0.3043 -0.9246
vn 0.3807 -0.5222 -0.7631
vn 0.4737 -0.6071 -0.6380
vn 0.2343 -0.4626 0.8551
vn 0.1275 -0.4527 0.8825
vn 0.0113 -0.4750 0.8799
vn 0.1497 -0.4494 0.8807
vn 0.0733 -0.4099 0.9092
vn 0.0082 -0.2422 0.9702
vn 0.1217 -0.5069 0.8534
vn 0.4393 -0.4728 0.7638
vn 0.3401 -0.4516 0.8248
vn 0.4000 -0.4082 0.8206
vn 0.3200 -0.4486 0.8345
vn 0.4853 -0.2398 0.8408
vn 0.3310 -0.5058 0.7966
vn 0.2073 -0.6252 0.7525
vn 0.6027 -0.5030 -0.6194
vn 0.6852 -0.4770 -0.5504
vn 0.7512 -0.4809 -0.4522
vn 0.6708 -0.4772 -0.5677
vn 0.7345 -0.4265 -0.5278
vn 0.8080 -0.2515 -0.5328
vn 0.6691 -0.5293 -0.5217
vn 0.4120 -0.5440 -0.7310
vn 0.5168 -0.5083 -0.6889
vn 0.4757 -0.4747 -0.7406
vn 0.5359 -0.5023 -0.6786
vn 0.4300 -0.3218 -0.8435
vn 0.5033 -0.5601 -0.6580
vn 0.5473 -0.6583 -0.5169
vn 0.7474 -0.3291 0.5772
vn 0.6716 -0.3435 0.6565
vn 0.5804 -0.3935 0.7130
vn 0.6881 -0.3351 0.6437
vn 0.6304 -0.3133 0.7102
vn 0.5676 -0.1625 0.8071
vn 0.6650 -0.3994 0.6311
vn 0.8709 -0.2956 0.3925
vn 0.8159 -0.2949 0.4973
vn 0.8522 -0.2387 0.4656
vn 0.8037 -0.2961 0.5162
vn 0.8915 -0.0535 0.4499
vn 0.8071 -0.3516 0.4743
vn 0.7120 -0.5003 0.4928
vn 0.4739 -0.5406 0.6951
vn 0.3895 -0.5167 0.7625
vn 0.2796 -0.5214 0.8062
vn 0.4094 -0.5166 0.7520
vn 0.3575 -0.4680 0.8082
vn 0.3490 -0.2963 0.8890
vn 0.3642 -0.5677 0.7383
vn 0.6225 -0.5756 0.5302
vn 0.5598 -0.5436 0.6254
vn 0.6193 -0.5094 0.5975
vn 0.5458 -0.5382 0.6422
vn 0.7312 -0.3568 0.5814
vn 0.5319 -0.5942 0.6034
vn 0.3836 -0.6912 0.6124
vn 0.4578 -0.4643 -0.7582
vn 0.5488 -0.4083 -0.7295
vn 0.6436 -0.3791 -0.6648
vn 0.5299 -0.4149 -0.7397
vn 0.5870 -0.3449 -0.7324
vn 0.6027 -0.1621 -0.7813
vn 0.5590 -0.4565 -0.6922
vn 0.2591 -0.5665 -0.7823
vn 0.3578 -0.5013 -0.7878
vn 0.2936 -0.4879 -0.8221
vn 0.3769 -0.4894 -0.7864
vn 0.1742 -0.3709 -0.9122
vn 0.3709 -0.5481 -0.7496
vn 0.4873 -0.6060 -0.6287
vn 0.9914 -0.0507 -0.1207
vn 0.9993 -0.0361 -0.0113
vn 0.9926 -0.0638 0.1036
vn 0.9989 -0.0327 -0.0335
vn 0.9989 0.0109 0.0460
vn 0.9756 0.1849 0.1183
vn 0.9986 -0.0515 -0.0133
vn 0.9379 -0.0868 -0.3359
vn 0.9721 -0.0476 -0.2296
vn 0.9571 -0.0067 -0.2895
vn 0.9771 -0.0419 -0.2084
vn 0.9147 0.1592 -0.3716
vn 0.9718 -0.0622 -0.2273
vn 0.9881 -0.0994 -0.1177
vn 0.4883 -0.3923 0.7795
vn 0.3917 -0.3899 0.8334
vn 0.2813 -0.4220 0.8618
vn 0.4123 -0.3849 0.8258
vn 0.3422 -0.3504 0.8719
vn 0.2792 -0.1856 0.9421
vn 0.3838 -0.4460 0.8086
vn 0.6632 -0.3905 0.6385
vn 0.5814 -0.3742 0.7225
vn 0.6337 -0.3263 0.7014
vn 0.5642 -0.3724 0.7369
vn 0.7049 -0.1504 0.6932
vn 0.5705 -0.4305 0.6994
vn 0.4516 -0.5622 0.6928
# 226 vertex normals

vt 0.2628 0.0364 1.0000
vt 0.2714 0.2348 1.0000
vt 0.2689 0.2356 1.0000
vt 0.2604 0.0380 1.0000
vt 0.2604 0.0380 0.0000
vt 0.2689 0.2356 0.0000
vt 0.2714 0.2348 0.0000
vt 0.2628 0.0364 0.0000
vt 0.2723 0.5062 1.0000
vt 0.2699 0.5056 1.0000
vt 0.2699 0.5056 0.0000
vt 0.2723 0.5062 0.0000
vt 0.2627 0.7487 1.0000
vt 0.2603 0.7482 1.0000
vt 0.2603 0.7482 0.0000
vt 0.2627 0.7487 0.0000
vt 0.2638 0.8539 1.0000
vt 0.2614 0.8538 1.0000
vt 0.2614 0.8538 0.0000
vt 0.2638 0.8539 0.0000
vt 0.2689 0.9593 1.0000
vt 0.2689 0.9593 0.0000
vt 0.2588 0.2045 0.0000
vt 0.2640 0.2121 0.0000
vt 0.2647 0.2597 0.0000
vt 0.2576 0.1739 0.0000
vt 0.2640 0.1795 0.0000
vt 0.2603 0.1552 0.0000
vt 0.2639 0.1597 0.0000
vt 0.2651 0.2120 0.0000
vt 0.2704 0.2039 0.0000
vt 0.2651 0.1794 0.0000
vt 0.2714 0.1731 0.0000
vt 0.2650 0.1596 0.0000
vt 0.2687 0.1547 0.0000
vt 0.2614 0.5828 0.0000
vt 0.2715 0.5828 0.0000
vt 0.2665 0.9524 0.0000
vt 0.2614 0.3302 0.0000
vt 0.2715 0.3302 0.0000
vt 0.2616 0.1769 0.0000
vt 0.2713 0.1769 0.0000
vt 0.2713 0.0449 0.0000
vt 0.2616 0.0449 0.0000
vt 0.2586 0.0831 0.0000
vt 0.2638 0.0906 0.0000
vt 0.2645 0.1382 0.0000
vt 0.2574 0.0524 0.0000
vt 0.2638 0.0580 0.0000
vt 0.2601 0.0337 0.0000
vt 0.2638 0.0383 0.0000
vt 0.2650 0.0905 0.0000
vt 0.2702 0.0824 0.0000
vt 0.2649 0.0580 0.0000
vt 0.2713 0.0517 0.0000
vt 0.2649 0.0382 0.0000
vt 0.2685 0.0332 0.0000
vt 0.2590 0.4404 0.0000
vt 0.2642 0.4480 0.0000
vt 0.2648 0.4956 0.0000
vt 0.2578 0.4098 0.0000
vt 0.2641 0.4154 0.0000
vt 0.2605 0.3911 0.0000
vt 0.2641 0.3956 0.0000
vt 0.2653 0.4479 0.0000
vt 0.2705 0.4398 0.0000
vt 0.2653 0.4154 0.0000
vt 0.2716 0.4091 0.0000
vt 0.2652 0.3956 0.0000
vt 0.2689 0.3906 0.0000
vt 0.2591 0.5629 0.0000
vt 0.2644 0.5704 0.0000
vt 0.2650 0.6181 0.0000
vt 0.2579 0.5323 0.0000
vt 0.2643 0.5379 0.0000
vt 0.2606 0.5135 0.0000
vt 0.2643 0.5181 0.0000
vt 0.2655 0.5704 0.0000
vt 0.2707 0.5623 0.0000
vt 0.2654 0.5378 0.0000
vt 0.2718 0.5315 0.0000
vt 0.2654 0.5180 0.0000
vt 0.2690 0.5131 0.0000
vt 0.2593 0.3210 0.0000
vt 0.2645 0.3285 0.0000
vt 0.2652 0.3762 0.0000
vt 0.2581 0.2904 0.0000
vt 0.2645 0.2960 0.0000
vt 0.2608 0.2716 0.0000
vt 0.2645 0.2762 0.0000
vt 0.2657 0.3285 0.0000
vt 0.2709 0.3203 0.0000
vt 0.2656 0.2959 0.0000
vt 0.2720 0.2896 0.0000
vt 0.2656 0.2761 0.0000
vt 0.2692 0.2712 0.0000
vt 0.2590 0.6824 0.0000
vt 0.2642 0.6899 0.0000
vt 0.2648 0.7375 0.0000
vt 0.2578 0.6517 0.0000
vt 0.2641 0.6573 0.0000
vt 0.2605 0.6330 0.0000
vt 0.2641 0.6376 0.0000
vt 0.2653 0.6898 0.0000
vt 0.2705 0.6817 0.0000
vt 0.2653 0.6573 0.0000
vt 0.2716 0.6510 0.0000
vt 0.2652 0.6375 0.0000
vt 0.2689 0.6325 0.0000
vt 0.2598 0.9093 0.0000
vt 0.2651 0.9169 0.0000
vt 0.2657 0.9645 0.0000
vt 0.2586 0.8787 0.0000
vt 0.2650 0.8843 0.0000
vt 0.2613 0.8600 0.0000
vt 0.2650 0.8645 0.0000
vt 0.2662 0.9168 0.0000
vt 0.2714 0.9087 0.0000
vt 0.2661 0.8842 0.0000
vt 0.2725 0.8779 0.0000
vt 0.2661 0.8645 0.0000
vt 0.2697 0.8595 0.0000
vt 0.2597 0.7968 0.0000
vt 0.2649 0.8044 0.0000
vt 0.2655 0.8520 0.0000
vt 0.2585 0.7662 0.0000
vt 0.2648 0.7718 0.0000
vt 0.2612 0.7475 0.0000
vt 0.2648 0.7520 0.0000
vt 0.2660 0.8043 0.0000
vt 0.2712 0.7962 0.0000
vt 0.2660 0.7718 0.0000
vt 0.2723 0.7655 0.0000
vt 0.2659 0.7520 0.0000
vt 0.2696 0.7470 0.0000
# 135 texture coords

o Line002
g Line002
s 1
f 1/1/1 2/2/1 3/3/1 4/4/1 
f 5/5/2 6/6/2 7/7/2 8/8/2 
f 2/2/1 9/9/1 10/10/1 3/3/1 
f 6/6/2 11/11/2 12/12/2 7/7/2 
f 9/9/1 13/13/1 14/14/1 10/10/1 
f 11/11/2 15/15/2 16/16/2 12/12/2 
f 13/13/1 17/17/1 18/18/1 14/14/1 
f 15/15/2 19/19/2 20/20/2 16/16/2 
f 17/17/1 21/21/1 18/18/1 
f 19/19/2 22/22/2 20/20/2 
f 23/23/3 24/24/4 25/25/5 
f 23/23/3 26/26/6 27/27/7 24/24/4 
f 27/27/7 26/26/6 28/28/8 29/29/9 
f 25/25/5 30/30/10 31/31/11 
f 30/30/10 32/32/12 33/33/13 31/31/11 
f 32/32/12 34/34/14 35/35/15 33/33/13 
s 2
f 24/36/4 30/37/10 25/38/5 
f 27/39/7 32/40/12 30/37/10 24/36/4 
f 32/40/12 27/39/7 29/41/9 34/42/14 
f 36/43/16 34/42/14 29/41/9 37/44/16 
s 1
f 38/45/17 39/46/18 40/47/19 
f 38/45/17 41/48/20 42/49/21 39/46/18 
f 42/49/21 41/48/20 43/50/22 44/51/23 
f 40/47/19 45/52/24 46/53/25 
f 45/52/24 47/54/26 48/55/27 46/53/25 
f 47/54/26 49/56/28 50/57/29 48/55/27 
s 2
f 39/36/18 45/37/24 40/38/19 
f 42/39/21 47/40/26 45/37/24 39/36/18 
f 47/40/26 42/39/21 44/41/23 49/42/28 
f 51/43/30 49/42/28 44/41/23 52/44/30 
s 1
f 53/58/31 54/59/32 55/60/33 
f 53/58/31 56/61/34 57/62/35 54/59/32 
f 57/62/35 56/61/34 58/63/36 59/64/37 
f 55/60/33 60/65/38 61/66/39 
f 60/65/38 62/67/40 63/68/41 61/66/39 
f 62/67/40 64/69/42 65/70/43 63/68/41 
s 2
f 54/36/32 60/37/38 55/38/33 
f 57/39/35 62/40/40 60/37/38 54/36/32 
f 62/40/40 57/39/35 59/41/37 64/42/42 
f 66/43/44 64/42/42 59/41/37 67/44/44 
s 1
f 68/71/45 69/72/46 70/73/47 
f 68/71/45 71/74/48 72/75/49 69/72/46 
f 72/75/49 71/74/48 73/76/50 74/77/51 
f 70/73/47 75/78/52 76/79/53 
f 75/78/52 77/80/54 78/81/55 76/79/53 
f 77/80/54 79/82/56 80/83/57 78/81/55 
s 2
f 69/36/46 75/37/52 70/38/47 
f 72/39/49 77/40/54 75/37/52 69/36/46 
f 77/40/54 72/39/49 74/41/51 79/42/56 
f 81/43/58 79/42/56 74/41/51 82/44/58 
s 1
f 83/84/59 84/85/60 85/86/61 
f 83/84/59 86/87/62 87/88/63 84/85/60 
f 87/88/63 86/87/62 88/89/64 89/90/65 
f 85/86/61 90/91/66 91/92/67 
f 90/91/66 92/93/68 93/94/69 91/92/67 
f 92/93/68 94/95/70 95/96/71 93/94/69 
s 2
f 84/36/60 90/37/66 85/38/61 
f 87/39/63 92/40/68 90/37/66 84/36/60 
f 92/40/68 87/39/63 89/41/65 94/42/70 
f 96/43/72 94/42/70 89/41/65 97/44/72 
s 1
f 98/97/73 99/98/74 100/99/75 
f 98/97/73 101/100/76 102/101/77 99/98/74 
f 102/101/77 101/100/76 103/102/78 104/103/79 
f 100/99/75 105/104/80 106/105/81 
f 105/104/80 107/106/82 108/107/83 106/105/81 
f 107/106/82 109/108/84 110/109/85 108/107/83 
s 2
f 99/36/74 105/37/80 100/38/75 
f 102/39/77 107/40/82 105/37/80 99/36/74 
f 107/40/82 102/39/77 104/41/79 109/42/84 
f 111/43/86 109/42/84 104/41/79 112/44/86 
s 1
f 113/110/87 114/111/88 115/112/89 
f 113/110/87 116/113/90 117/114/91 114/111/88 
f 117/114/91 116/113/90 118/115/92 119/116/93 
f 115/112/89 120/117/94 121/118/95 
f 120/117/94 122/119/96 123/120/97 121/118/95 
f 122/119/96 124/121/98 125/122/99 123/120/97 
s 2
f 114/36/88 120/37/94 115/38/89 
f 117/39/91 122/40/96 120/37/94 114/36/88 
f 122/40/96 117/39/91 119/41/93 124/42/98 
f 126/43/100 124/42/98 119/41/93 127/44/100 
s 1
f 128/123/101 129/124/102 130/125/103 
f 128/123/101 131/126/104 132/127/105 129/124/102 
f 132/127/105 131/126/104 133/128/106 134/129/107 
f 130/125/103 135/130/108 136/131/109 
f 135/130/108 137/132/110 138/133/111 136/131/109 
f 137/132/110 139/134/112 140/135/113 138/133/111 
s 2
f 129/36/102 135/37/108 130/38/103 
f 132/39/105 137/40/110 135/37/108 129/36/102 
f 137/40/110 132/39/105 134/41/107 139/42/112 
f 141/43/114 139/42/112 134/41/107 142/44/114 
s 1
f 143/25/115 144/24/116 145/23/117 
f 146/27/118 147/26/119 145/23/117 144/24/116 
f 148/28/120 147/26/119 146/27/118 149/29/121 
f 150/31/122 151/30/123 143/25/115 
f 152/33/124 153/32/125 151/30/123 150/31/122 
f 154/35/126 155/34/127 153/32/125 152/33/124 
s 2
f 143/38/115 151/37/123 144/36/116 
f 151/37/123 153/40/125 146/39/118 144/36/116 
f 149/41/121 146/39/118 153/40/125 155/42/127 
f 149/41/121 155/42/127 156/43/128 157/44/128 
s 1
f 158/47/129 159/46/130 160/45/131 
f 161/49/132 162/48/133 160/45/131 159/46/130 
f 163/50/134 162/48/133 161/49/132 164/51/135 
f 165/53/136 166/52/137 158/47/129 
f 167/55/138 168/54/139 166/52/137 165/53/136 
f 169/57/140 170/56/141 168/54/139 167/55/138 
s 2
f 158/38/129 166/37/137 159/36/130 
f 166/37/137 168/40/139 161/39/132 159/36/130 
f 164/41/135 161/39/132 168/40/139 170/42/141 
f 164/41/135 170/42/141 171/43/142 172/44/142 
s 1
f 173/60/143 174/59/144 175/58/145 
f 176/62/146 177/61/147 175/58/145 174/59/144 
f 178/63/148 177/61/147 176/62/146 179/64/149 
f 180/66/150 181/65/151 173/60/143 
f 182/68/152 183/67/153 181/65/151 180/66/150 
f 184/70/154 185/69/155 183/67/153 182/68/152 
s 2
f 173/38/143 181/37/151 174/36/144 
f 181/37/151 183/40/153 176/39/146 174/36/144 
f 179/41/149 176/39/146 183/40/153 185/42/155 
f 179/41/149 185/42/155 186/43/156 187/44/156 
s 1
f 188/73/157 189/72/158 190/71/159 
f 191/75/160 192/74/161 190/71/159 189/72/158 
f 193/76/162 192/74/161 191/75/160 194/77/163 
f 195/79/164 196/78/165 188/73/157 
f 197/81/166 198/80/167 196/78/165 195/79/164 
f 199/83/168 200/82/169 198/80/167 197/81/166 
s 2
f 188/38/157 196/37/165 189/36/158 
f 196/37/165 198/40/167 191/39/160 189/36/158 
f 194/41/163 191/39/160 198/40/167 200/42/169 
f 194/41/163 200/42/169 201/43/170 202/44/170 
s 1
f 203/86/171 204/85/172 205/84/173 
f 206/88/174 207/87/175 205/84/173 204/85/172 
f 208/89/176 207/87/175 206/88/174 209/90/177 
f 210/92/178 211/91/179 203/86/171 
f 212/94/180 213/93/181 211/91/179 210/92/178 
f 214/96/182 215/95/183 213/93/181 212/94/180 
s 2
f 203/38/171 211/37/179 204/36/172 
f 211/37/179 213/40/181 206/39/174 204/36/172 
f 209/41/177 206/39/174 213/40/181 215/42/183 
f 209/41/177 215/42/183 216/43/184 217/44/184 
s 1
f 218/99/185 219/98/186 220/97/187 
f 221/101/188 222/100/189 220/97/187 219/98/186 
f 223/102/190 222/100/189 221/101/188 224/103/191 
f 225/105/192 226/104/193 218/99/185 
f 227/107/194 228/106/195 226/104/193 225/105/192 
f 229/109/196 230/108/197 228/106/195 227/107/194 
s 2
f 218/38/185 226/37/193 219/36/186 
f 226/37/193 228/40/195 221/39/188 219/36/186 
f 224/41/191 221/39/188 228/40/195 230/42/197 
f 224/41/191 230/42/197 231/43/198 232/44/198 
s 1
f 233/112/199 234/111/200 235/110/201 
f 236/114/202 237/113/203 235/110/201 234/111/200 
f 238/115/204 237/113/203 236/114/202 239/116/205 
f 240/118/206 241/117/207 233/112/199 
f 242/120/208 243/119/209 241/117/207 240/118/206 
f 244/122/210 245/121/211 243/119/209 242/120/208 
s 2
f 233/38/199 241/37/207 234/36/200 
f 241/37/207 243/40/209 236/39/202 234/36/200 
f 239/41/205 236/39/202 243/40/209 245/42/211 
f 239/41/205 245/42/211 246/43/212 247/44/212 
s 1
f 248/125/213 249/124/214 250/123/215 
f 251/127/216 252/126/217 250/123/215 249/124/214 
f 253/128/218 252/126/217 251/127/216 254/129/219 
f 255/131/220 256/130/221 248/125/213 
f 257/133/222 258/132/223 256/130/221 255/131/220 
f 259/135/224 260/134/225 258/132/223 257/133/222 
s 2
f 248/38/213 256/37/221 249/36/214 
f 256/37/221 258/40/223 251/39/216 249/36/214 
f 254/41/219 251/39/216 258/40/223 260/42/225 
f 254/41/219 260/42/225 261/43/226 262/44/226 
# 120 polygons - 50 triangles

