# 3ds Max Wavefront OBJ Exporter v0.97b - (c)2007 guruware
# File Created: 08.09.2018 21:37:30

#
# object stone_small_DARK
#

v  -7.1142 -2.5867 7.1142
v  0.0000 -4.1742 0.0000
v  -0.9988 -2.5867 9.2501
v  -0.2065 -2.5867 9.4761
v  7.1142 -2.5867 7.1142
v  -9.4236 -2.5867 -0.0000
v  -7.1142 -2.5867 -7.1142
v  7.1142 -2.5867 -7.1142
v  9.4236 -2.5867 -0.0000
v  -21.0850 44.5543 17.4927
v  -0.7493 44.5543 25.6592
v  -0.7493 44.5543 0.0000
v  -26.0424 44.5543 2.2216
v  17.0620 44.5543 17.9604
v  23.0084 44.5543 0.0000
v  -26.0424 44.5543 -2.2216
v  -0.7493 44.5543 -27.9158
v  -20.3883 44.5543 -19.6390
v  18.3330 44.5543 -17.3578
v  -19.6850 9.4248 19.6850
v  -4.1569 9.4248 27.1189
v  -4.1571 13.1552 28.9638
v  -20.9973 13.3642 20.9825
v  2.0462 9.4248 27.1189
v  19.3812 9.7746 19.3772
v  20.9973 13.3642 20.9825
v  3.4639 13.1552 28.9638
v  -22.2344 31.1902 21.4539
v  -0.7493 30.7028 30.4957
v  -0.7493 37.6924 32.3128
v  -23.4816 37.6924 22.7323
v  20.7357 31.1902 21.4539
v  21.9830 37.6924 22.7323
v  26.9133 10.2606 -0.0000
v  27.8136 13.9134 -0.0000
v  21.2873 11.4668 -16.1981
v  20.0956 16.6997 -19.1713
v  27.2980 32.2784 1.2685
v  29.3624 37.6924 0.0000
v  22.5747 33.3459 -20.9277
v  20.8193 37.6924 -21.0002
v  17.4789 11.6048 -21.3716
v  0.0000 11.6150 -28.7479
v  0.0000 14.6940 -29.8256
v  19.4368 14.4846 -20.6390
v  -20.7845 10.2256 -19.6844
v  -20.9973 14.4626 -20.9825
v  18.8425 33.4863 -23.2154
v  -1.0806 33.9047 -32.2833
v  -0.7493 37.6924 -32.3128
v  19.7357 37.6924 -22.2030
v  -22.6468 33.4350 -20.1855
v  -23.4816 37.6924 -22.7323
v  -26.1102 9.4295 0.1953
v  -27.8136 13.9134 -0.0000
v  -28.4878 32.3468 -0.0000
v  -30.1399 37.6924 -2.2216
v  -30.1399 37.6924 2.2216
v  -0.7493 42.6544 29.1333
v  19.7474 42.6515 20.4967
v  -17.8587 1.2701 16.9108
v  -23.5744 7.7909 0.8542
v  -23.3129 1.6783 1.4042
v  -2.2175 1.6277 17.6429
v  16.5378 1.6783 -0.0000
v  24.2741 7.9618 -0.0000
v  12.0767 1.2701 12.0767
v  -0.2437 1.6104 17.0295
v  -19.9587 7.5040 -18.1856
v  -18.5778 1.2701 -14.2692
v  0.2312 9.3470 -27.1949
v  0.1122 1.6783 -16.3424
v  18.5899 9.2310 -19.5226
v  12.0767 1.2701 -12.0767
v  0.0000 -2.5867 -10.1124
v  -2.2056 19.4204 24.4388
v  -20.4034 15.9021 18.9935
v  16.7250 20.4565 18.1095
v  25.6683 22.1383 1.4599
v  20.6500 22.8105 -16.4333
v  22.7301 23.6861 -12.1594
v  0.7069 19.6829 -28.5650
v  17.9055 21.7452 -18.9831
v  -19.6683 16.8312 -21.1978
v  -25.8531 15.7356 -1.4599
v  -1.8040 22.5090 28.2946
v  -22.1092 19.7807 20.9116
v  19.3233 24.0586 20.5232
v  -1.1296 27.1786 -28.6461
v  18.3522 24.5741 -17.8775
v  -22.4175 21.2283 -22.3966
v  -30.0826 20.1231 -1.9907
v  -22.4413 21.8573 21.3328
v  -0.8225 32.6808 -28.3580
v  17.9475 32.2432 -19.9525
v  -22.1382 25.6205 -20.9337
v  -29.1713 24.3579 -1.5903
v  20.0984 32.2065 -19.0216
v  -0.8237 13.1552 25.5949
v  -0.8237 9.4248 24.1812
v  -0.8758 1.6487 14.1160
v  23.0203 9.6000 -0.4060
v  -19.4148 9.4893 -17.8552
v  -0.5307 9.6509 -25.4171
v  17.7319 9.6191 -18.8767
v  17.4860 11.5358 -18.3268
v  18.9066 15.5889 -18.8585
v  19.8207 33.4315 -20.9573
v  19.9627 37.6924 -20.7749
v  16.9543 21.8670 -17.7805
v  20.5366 24.7338 -16.5001
v  17.4137 24.2304 -16.7057
v  17.2364 32.2116 -18.2035
v  19.6740 23.7721 -15.2793
v  -20.6728 24.2810 -20.5147
v  -27.7383 23.0722 -1.2926
v  -23.4438 44.5543 0.0000
v  -27.9019 36.6243 0.0000
# 118 vertices

vn -0.1559 -0.9753 0.1564
vn 0.0001 -1.0000 0.0025
vn -0.0960 -0.9486 0.3016
vn -0.0418 -0.9116 0.4090
vn 0.2600 -0.9298 0.2606
vn -0.2431 -0.9700 -0.0046
vn -0.1646 -0.9716 -0.1702
vn 0.2713 -0.9312 -0.2436
vn 0.3779 -0.9259 -0.0000
vn -0.4312 0.8451 0.3160
vn 0.0052 0.9527 0.3040
vn 0.0000 1.0000 -0.0000
vn -0.5836 0.7852 -0.2073
vn 0.2175 0.9560 0.1969
vn 0.4511 0.8924 -0.0045
vn -0.5836 0.7852 0.2073
vn 0.0363 0.8200 -0.5712
vn -0.4222 0.8222 -0.3818
vn 0.4727 0.8219 -0.3179
vn -0.6911 -0.4100 0.5952
vn 0.1096 -0.5827 0.8053
vn 0.1159 0.0636 0.9912
vn -0.7239 0.0841 0.6847
vn -0.2357 -0.5284 0.8156
vn 0.5648 -0.6440 0.5160
vn 0.7488 0.0239 0.6624
vn 0.0203 0.0857 0.9961
vn -0.7426 -0.1330 0.6564
vn 0.0132 -0.2569 0.9664
vn 0.0000 0.1436 0.9896
vn -0.7076 0.1794 0.6835
vn 0.7231 -0.2477 0.6448
vn 0.7269 0.1355 0.6732
vn 0.7339 -0.6792 -0.0106
vn 0.9993 -0.0256 -0.0259
vn 0.7841 -0.3808 -0.4901
vn 0.2842 0.1377 -0.9488
vn 0.9651 -0.2583 0.0436
vn 0.9847 0.1649 -0.0562
vn 0.6498 -0.3646 -0.6670
vn 0.3504 0.3036 -0.8860
vn 0.6260 -0.4381 -0.6451
vn 0.0155 -0.5923 -0.8056
vn 0.0031 -0.0391 -0.9992
vn 0.9387 -0.2042 -0.2777
vn -0.6006 -0.6168 -0.5087
vn -0.7508 0.0614 -0.6576
vn 0.5684 -0.4925 -0.6591
vn -0.0544 -0.5189 -0.8531
vn 0.0400 0.2568 -0.9656
vn 0.7910 0.2289 -0.5674
vn -0.7623 -0.2667 -0.5897
vn -0.7140 0.0229 -0.6998
vn -0.7931 -0.6091 0.0030
vn -0.9744 0.2227 0.0313
vn -0.9946 -0.1034 0.0121
vn -0.9743 0.1328 0.1817
vn -0.9743 0.1328 -0.1817
vn -0.0223 0.6940 0.7196
vn 0.5552 0.6950 0.4569
vn -0.4474 -0.6801 0.5807
vn -0.8609 -0.5071 0.0410
vn -0.8316 -0.5544 0.0325
vn 0.5315 -0.6560 0.5359
vn 0.5849 -0.8111 0.0000
vn 0.9909 -0.1349 -0.0027
vn 0.4159 -0.8170 0.3994
vn -0.5740 -0.6240 0.5303
vn -0.7563 -0.1146 -0.6441
vn -0.4810 -0.7338 -0.4797
vn 0.0138 0.1989 -0.9799
vn 0.0642 -0.8191 -0.5700
vn 0.7362 0.1479 -0.6604
vn 0.4079 -0.8199 -0.4017
vn -0.0019 -0.9097 -0.4152
vn 0.0388 -0.2050 0.9780
vn -0.7730 0.0330 0.6335
vn 0.6187 -0.0963 0.7797
vn 0.9910 0.0086 0.1339
vn 0.5267 0.5443 -0.6529
vn 0.9141 0.0517 -0.4021
vn 0.1196 0.1240 -0.9850
vn 0.9611 0.1332 -0.2418
vn -0.6290 -0.1453 -0.7637
vn -0.9977 0.0235 -0.0638
vn 0.0327 -0.5152 0.8564
vn -0.6412 -0.3957 0.6574
vn 0.6356 -0.4421 0.6329
vn 0.0571 0.0403 -0.9976
vn 0.9990 -0.0056 -0.0434
vn -0.7058 0.0331 -0.7076
vn -0.9981 -0.0490 -0.0362
vn -0.7240 -0.1292 0.6776
vn 0.0169 -0.6529 -0.7572
vn 0.9844 -0.1367 -0.1109
vn -0.6615 -0.3399 -0.6685
vn -0.9382 -0.3363 -0.0817
vn 0.1562 -0.7290 -0.6665
vn 0.0209 -0.1052 0.9942
vn -0.0391 -0.6613 0.7491
vn 0.0020 -0.7512 0.6601
vn 0.9040 -0.4210 -0.0743
vn -0.5966 -0.5514 -0.5831
vn -0.0919 0.2234 -0.9704
vn 0.6512 0.5256 -0.5473
vn 0.8518 -0.0434 -0.5221
vn 0.6372 0.0665 -0.7678
vn 0.3607 -0.6953 -0.6216
vn 0.5339 0.2885 -0.7948
vn 0.9780 0.0606 -0.1997
vn 0.5184 -0.4928 -0.6988
vn 0.8880 -0.1946 -0.4165
vn 0.6845 -0.5027 -0.5279
vn 0.6380 0.0454 -0.7687
vn -0.6834 0.0006 -0.7301
vn -0.9942 -0.0997 -0.0393
vn -0.2474 0.9689 -0.0000
vn -0.9518 0.3068 -0.0000
# 118 vertex normals

vt 0.9219 0.0647 0.1578
vt 0.9304 0.0344 0.0065
vt 0.9245 0.0647 0.1435
vt 0.9249 0.0647 0.1467
vt 0.9279 0.0647 0.1674
vt 0.9192 0.0647 0.1518
vt 0.9164 0.0647 0.1578
vt 0.9330 0.0650 0.1674
vt 0.9304 0.0649 0.1649
vt 0.9215 0.9651 0.4506
vt 0.9243 0.9651 0.3976
vt 0.9192 0.9651 0.0061
vt 0.9195 0.9651 0.4325
vt 0.9277 0.9651 0.4406
vt 0.9295 0.9651 0.3943
vt 0.9189 0.9651 0.4325
vt 0.9136 0.9651 0.4320
vt 0.9166 0.9651 0.4531
vt 0.9109 0.9651 0.4300
vt 0.9219 0.2941 0.4449
vt 0.9243 0.2941 0.4244
vt 0.9243 0.3654 0.4526
vt 0.9219 0.3694 0.4747
vt 0.9252 0.2941 0.4216
vt 0.9278 0.3008 0.4475
vt 0.9278 0.3694 0.4844
vt 0.9253 0.3654 0.4528
vt 0.9218 0.7099 0.4950
vt 0.9248 0.7006 0.4719
vt 0.9248 0.8341 0.5000
vt 0.9218 0.8341 0.5238
vt 0.9277 0.7099 0.4860
vt 0.9277 0.8341 0.5149
vt 0.9304 0.3104 0.4588
vt 0.9304 0.3801 0.4740
vt 0.9326 0.3340 0.4422
vt 0.9328 0.3902 0.4646
vt 0.9303 0.7307 0.4657
vt 0.9304 0.8341 0.5000
vt 0.9329 0.7510 0.5038
vt 0.9329 0.8341 0.5023
vt 0.9109 0.3358 0.4467
vt 0.9135 0.3360 0.4449
vt 0.9135 0.3948 0.4616
vt 0.9107 0.3908 0.4615
vt 0.9166 0.3094 0.4586
vt 0.9165 0.3904 0.4747
vt 0.9108 0.7537 0.4865
vt 0.9136 0.7617 0.4997
vt 0.9136 0.8341 0.5000
vt 0.9108 0.8341 0.4821
vt 0.9167 0.7527 0.4873
vt 0.9166 0.8341 0.5238
vt 0.9192 0.2942 0.4323
vt 0.9192 0.3799 0.4609
vt 0.9192 0.7320 0.4722
vt 0.9189 0.8341 0.5012
vt 0.9194 0.8341 0.5012
vt 0.9248 0.9288 0.4508
vt 0.9277 0.9288 0.4638
vt 0.9329 0.9651 0.4318
vt 0.9218 0.1384 0.3933
vt 0.9193 0.2629 0.3899
vt 0.9194 0.1462 0.3859
vt 0.9244 0.1452 0.2747
vt 0.9304 0.1465 0.2845
vt 0.9304 0.2665 0.4145
vt 0.9278 0.1384 0.2807
vt 0.9248 0.1449 0.2635
vt 0.9167 0.2575 0.4328
vt 0.9169 0.1384 0.3771
vt 0.9135 0.2927 0.4209
vt 0.9134 0.1462 0.2530
vt 0.9107 0.2904 0.4393
vt 0.9106 0.1384 0.2807
vt 0.9330 0.1392 0.2807
vt 0.9331 0.2913 0.4393
vt 0.9134 0.0647 0.1566
vt 0.9105 0.0647 0.1674
vt 0.9359 0.0647 0.1566
vt 0.9245 0.4851 0.3794
vt 0.9218 0.4179 0.4467
vt 0.9277 0.5049 0.4016
vt 0.9302 0.5370 0.4385
vt 0.9327 0.5506 0.4355
vt 0.9320 0.5667 0.4317
vt 0.9134 0.4901 0.4424
vt 0.9107 0.5295 0.4252
vt 0.9164 0.4356 0.4611
vt 0.9190 0.4147 0.4286
vt 0.8967 0.4352 0.3794
vt 0.8968 0.4983 0.4385
vt 0.8936 0.4426 0.4878
vt 0.8936 0.3634 0.4467
vt 0.9002 0.4564 0.4016
vt 0.9002 0.5300 0.4589
vt 0.9030 0.4907 0.4385
vt 0.8844 0.4406 0.4424
vt 0.8847 0.5937 0.4434
vt 0.8812 0.5405 0.4192
vt 0.8813 0.4827 0.4252
vt 0.8876 0.3824 0.4611
vt 0.8878 0.4722 0.5071
vt 0.8906 0.3600 0.4286
vt 0.8905 0.4496 0.5000
vt 0.9246 0.5441 0.4385
vt 0.9218 0.5316 0.4963
vt 0.9277 0.5737 0.4589
vt 0.9137 0.6332 0.4434
vt 0.9136 0.7383 0.4389
vt 0.9108 0.7300 0.4362
vt 0.9105 0.5835 0.4192
vt 0.9166 0.6035 0.4884
vt 0.9190 0.5794 0.4843
vt 0.9517 0.5364 0.4530
vt 0.9516 0.5594 0.5038
vt 0.9487 0.5376 0.4657
vt 0.9552 0.5463 0.4389
vt 0.9553 0.5710 0.4997
vt 0.9520 0.5625 0.4865
vt 0.9520 0.5374 0.4362
vt 0.9587 0.5615 0.4873
vt 0.9519 0.0840 0.0065
vt 0.9520 0.1146 0.1467
vt 0.9516 0.1146 0.1435
vt 0.9516 0.5589 0.3794
vt 0.9519 0.4324 0.3961
vt 0.9525 0.4324 0.4528
vt 0.9513 0.3571 0.4244
vt 0.9519 0.3571 0.3742
vt 0.9514 0.4324 0.4526
vt 0.9523 0.3571 0.4216
vt 0.9518 0.2001 0.2186
vt 0.9520 0.1993 0.2635
vt 0.9515 0.1996 0.2747
vt 0.9645 0.0767 0.4449
vt 0.9615 0.0768 0.4323
vt 0.9616 0.0437 0.3899
vt 0.9488 0.0466 0.4145
vt 0.9489 0.0797 0.3935
vt 0.9459 0.0827 0.4475
vt 0.9586 0.0780 0.4226
vt 0.9586 0.0379 0.4328
vt 0.9552 0.0813 0.3933
vt 0.9551 0.0751 0.4209
vt 0.9519 0.0806 0.4220
vt 0.9519 0.0728 0.4393
vt 0.9488 0.0930 0.4588
vt 0.9586 0.0929 0.4586
vt 0.9551 0.1209 0.4449
vt 0.9522 0.1207 0.4467
vt 0.9513 0.1179 0.4422
vt 0.9519 0.1193 0.4131
vt 0.9518 0.1747 0.4362
vt 0.9515 0.1773 0.4646
vt 0.9519 0.5614 0.4696
vt 0.9519 0.6474 0.4694
vt 0.9516 0.6474 0.5023
vt 0.9522 0.7860 0.4300
vt 0.9520 0.6474 0.4821
vt 0.9519 0.3279 0.4008
vt 0.9513 0.3470 0.4355
vt 0.9514 0.3858 0.4346
vt 0.9517 0.3756 0.3954
vt 0.9519 0.5368 0.4088
vt 0.9519 0.3255 0.4252
vt 0.9517 0.3826 0.4192
vt 0.9513 0.3664 0.4118
vt 0.9519 0.1789 0.4615
vt 0.9330 0.9651 0.4137
vt 0.9588 0.3393 0.4385
vt 0.9557 0.3262 0.4963
vt 0.9557 0.2843 0.4878
vt 0.9497 0.3135 0.5071
vt 0.9497 0.3751 0.4658
vt 0.9465 0.4336 0.4434
vt 0.9525 0.2912 0.5000
vt 0.9526 0.3507 0.4601
vt 0.9498 0.4022 0.4884
vt 0.9525 0.3767 0.4843
vt 0.9519 0.7860 0.0061
vt 0.9519 0.7860 0.3875
vt 0.9522 0.7860 0.4325
vt 0.9519 0.5395 0.4722
vt 0.9519 0.6259 0.4624
vt 0.9516 0.6474 0.5012
vt 0.9516 0.7860 0.4325
vt 0.9521 0.6474 0.5012
vt 0.9507 0.3646 0.4317
vt 0.9327 0.5870 0.4346
vt 0.9330 0.7293 0.4530
vt 0.8934 0.9485 0.4407
vt 0.8969 0.9097 0.4508
vt 0.8969 0.9485 0.3971
vt 0.9002 0.9097 0.4638
vt 0.9002 0.9485 0.4040
vt 0.9032 0.9485 0.3932
# 197 texture coords

o stone_small_DARK
g stone_small_DARK
s 8
f 1/1/1 2/2/2 3/3/3 
f 4/4/4 2/2/2 5/5/5 
f 6/6/6 7/7/7 2/2/2 
f 2/2/2 8/8/8 9/9/9 
s 1
f 10/10/10 11/11/11 12/12/12 13/13/13 
f 11/11/11 14/14/14 15/15/15 12/12/12 
f 16/16/16 12/12/12 17/17/17 18/18/18 
f 12/12/12 19/19/19 17/17/17 
s 4
f 20/20/20 21/21/21 22/22/22 23/23/23 
f 24/24/24 25/25/25 26/26/26 27/27/27 
s 3
f 28/28/28 29/29/29 30/30/30 31/31/31 
f 29/29/29 32/32/32 33/33/33 30/30/30 
s 4
f 25/25/25 34/34/34 35/35/35 26/26/26 
f 34/34/34 36/36/36 37/37/37 35/35/35 
s 3
f 32/32/32 38/38/38 39/39/39 33/33/33 
s 1
f 38/38/38 40/40/40 41/41/41 39/39/39 
s 4
f 42/42/42 43/43/43 44/44/44 45/45/45 
f 43/43/43 46/46/46 47/47/47 44/44/44 
s 1
f 48/48/48 49/49/49 50/50/50 51/51/51 
f 49/49/49 52/52/52 53/53/53 50/50/50 
s 4
f 46/46/46 54/54/54 55/55/55 47/47/47 
f 54/54/54 20/20/20 23/23/23 55/55/55 
s 3
f 52/52/52 56/56/56 57/57/57 53/53/53 
s 19
f 56/56/56 28/28/28 31/31/31 58/58/58 
s 1
f 10/10/10 31/31/31 30/30/30 59/59/59 
f 13/13/13 58/58/58 31/31/31 10/10/10 
f 59/59/59 30/30/30 33/33/33 60/60/60 
f 60/60/60 33/33/33 39/39/39 15/15/15 
f 17/17/17 50/50/50 53/53/53 18/18/18 
f 18/18/18 53/53/53 57/57/57 16/16/16 
f 15/15/15 39/39/39 41/41/41 19/61/19 
f 19/19/19 51/51/51 50/50/50 17/17/17 
s 24
f 61/62/61 20/20/20 62/63/62 63/64/63 
s 12
f 64/65/64 21/21/21 20/20/20 61/62/61 
s 8
f 65/66/65 66/67/66 25/25/25 67/68/67 
s 12
f 67/68/67 25/25/25 24/24/24 68/69/68 
s 8
f 63/64/63 62/63/62 69/70/69 70/71/70 
f 70/71/70 69/70/69 71/72/71 72/73/72 
f 72/73/72 71/72/71 73/74/73 74/75/74 
f 74/76/74 73/77/73 66/67/66 65/66/65 
f 1/1/1 61/62/61 63/64/63 6/6/6 
f 3/3/3 64/65/64 61/62/61 1/1/1 
f 9/9/9 65/66/65 67/68/67 5/5/5 
f 5/5/5 67/68/67 68/69/68 4/4/4 
f 6/6/6 63/64/63 70/71/70 7/7/7 
f 7/7/7 70/71/70 72/73/72 75/78/75 
f 75/78/75 72/73/72 74/75/74 8/79/8 
f 8/8/8 74/76/74 65/66/65 9/9/9 
f 1/1/1 6/6/6 2/2/2 
f 2/2/2 9/9/9 5/5/5 
f 7/7/7 75/80/75 2/2/2 
f 2/2/2 75/80/75 8/8/8 
s 4
f 22/22/22 76/81/76 77/82/77 23/23/23 
f 26/26/26 78/83/78 76/81/76 27/27/27 
f 35/35/35 79/84/79 78/83/78 26/26/26 
f 37/37/37 80/85/80 81/86/81 35/35/35 
f 44/44/44 82/87/82 83/88/83 45/45/45 
f 47/47/47 84/89/84 82/87/82 44/44/44 
f 55/55/55 85/90/85 84/89/84 47/47/47 
f 23/23/23 77/82/77 85/90/85 55/55/55 
s 6
f 76/91/76 86/92/86 87/93/87 77/94/77 
f 78/95/78 88/96/88 86/92/86 76/91/76 
f 79/97/79 88/96/88 78/95/78 
f 82/98/82 89/99/89 90/100/90 83/101/83 
f 84/102/84 91/103/91 89/99/89 82/98/82 
f 85/104/85 92/105/92 91/103/91 84/102/84 
f 77/94/77 87/93/87 92/105/92 85/104/85 
s 2
f 86/106/86 29/29/29 28/28/28 93/107/93 
f 88/108/88 32/32/32 29/29/29 86/106/86 
f 79/84/79 38/38/38 32/32/32 88/108/88 
f 81/86/81 38/38/38 79/84/79 
f 89/109/89 94/110/94 95/111/95 90/112/90 
f 96/113/96 52/52/52 94/110/94 89/109/89 
f 97/114/97 56/56/56 52/52/52 96/113/96 
f 93/107/93 28/28/28 56/56/56 97/114/97 
s 1
f 98/115/98 40/116/40 38/117/38 
f 94/118/94 49/119/49 48/120/48 95/121/95 
f 52/122/52 49/119/49 94/118/94 
s 24
f 2/123/2 4/124/4 3/125/3 
s 20
f 76/126/76 99/127/99 27/128/27 
f 21/129/21 100/130/100 99/127/99 22/131/22 
s 28
f 24/132/24 100/130/100 101/133/101 68/134/68 
s 24
f 3/125/3 4/124/4 101/133/101 64/135/64 
s 20
f 76/126/76 22/131/22 99/127/99 
f 100/130/100 24/132/24 27/128/27 99/127/99 
s 28
f 100/130/100 21/129/21 64/135/64 101/133/101 
s 24
f 4/124/4 68/134/68 101/133/101 
s 12
f 20/136/20 54/137/54 62/138/62 
s 8
f 66/139/66 102/140/102 25/141/25 
f 62/138/62 54/137/54 103/142/103 69/143/69 
f 69/143/69 103/142/103 104/144/104 71/145/71 
f 71/145/71 104/144/104 105/146/105 73/147/73 
f 73/147/73 105/146/105 102/140/102 66/139/66 
s 4
f 102/140/102 34/148/34 25/141/25 
f 54/137/54 46/149/46 103/142/103 
f 103/142/103 46/149/46 43/150/43 104/144/104 
s 20
f 104/144/104 43/150/43 42/151/42 105/146/105 
f 105/146/105 36/152/36 34/148/34 102/140/102 
f 36/152/36 106/153/106 107/154/107 37/155/37 
s 17
f 40/116/40 108/156/108 109/157/109 41/158/41 
f 19/159/19 109/157/109 51/160/51 
s 20
f 37/155/37 107/154/107 110/161/110 80/162/80 
s 18
f 111/163/111 112/164/112 113/165/113 98/115/98 
s 17
f 98/115/98 113/165/113 108/156/108 40/116/40 
s 20
f 83/166/83 90/167/90 112/164/112 110/161/110 
f 110/161/110 112/164/112 114/168/114 80/162/80 
f 105/146/105 42/151/42 106/153/106 
f 106/153/106 36/152/36 105/146/105 
f 106/153/106 42/151/42 45/169/45 107/154/107 
s 17
f 108/156/108 48/120/48 51/160/51 109/157/109 
f 19/159/19 41/158/41 109/157/109 
s 20
f 107/154/107 45/169/45 83/166/83 110/161/110 
s 18
f 112/164/112 90/167/90 95/121/95 113/165/113 
s 17
f 113/165/113 95/121/95 48/120/48 108/156/108 
s 1
f 12/12/12 15/15/15 19/170/19 
s 6
f 86/171/86 93/172/93 87/173/87 
s 4
f 91/174/91 115/175/115 89/176/89 
f 92/177/92 116/178/116 115/175/115 91/174/91 
f 87/173/87 93/172/93 116/178/116 92/177/92 
s 2
f 115/175/115 96/179/96 89/176/89 
f 116/178/116 97/180/97 96/179/96 115/175/115 
f 93/172/93 97/180/97 116/178/116 
s 16
f 12/181/12 117/182/117 13/183/13 
s 18
f 56/184/56 118/185/118 57/186/57 
s 16
f 57/186/57 118/185/118 117/182/117 16/187/16 
f 12/181/12 16/187/16 117/182/117 
s 18
f 56/184/56 58/188/58 118/185/118 
s 16
f 118/185/118 58/188/58 13/183/13 117/182/117 
s 20
f 80/162/80 114/168/114 81/189/81 
s 18
f 112/164/112 111/163/111 114/168/114 
f 114/168/114 111/163/111 81/189/81 
s 2
f 81/86/81 111/190/111 98/191/98 38/38/38 
s 6
f 81/86/81 79/84/79 35/35/35 
s 1
f 10/192/10 59/193/59 11/194/11 
f 11/194/11 59/193/59 60/195/60 14/196/14 
f 14/196/14 60/195/60 15/197/15 
# 96 polygons - 40 triangles

