# 3ds Max Wavefront OBJ Exporter v0.97b - (c)2007 guruware
# File Created: 09.09.2018 15:59:01

#
# object stone_small_MED_alt
#

v  6.3648 47.1410 7.1142
v  -0.7493 48.7285 -0.0000
v  0.2495 47.1410 9.2501
v  -0.5428 47.1410 9.4761
v  -7.8635 47.1411 7.1142
v  8.6743 47.1410 -0.0000
v  6.3648 47.1410 -7.1142
v  -7.8635 47.1411 -7.1142
v  -10.1729 47.1411 -0.0000
v  20.3357 -0.0000 17.4927
v  0.0000 0.0000 25.6592
v  0.0000 0.0000 -0.0000
v  25.2931 -0.0000 2.2216
v  -17.8114 0.0000 17.9604
v  -23.7577 0.0000 -0.0000
v  25.2931 -0.0000 -2.2216
v  0.0000 0.0000 -27.9158
v  19.6389 -0.0000 -19.6390
v  -19.0823 0.0000 -17.3578
v  18.9357 35.1295 19.6850
v  3.4076 35.1295 27.1189
v  3.4077 31.3991 28.9638
v  20.2480 31.1902 20.9825
v  -2.7955 35.1295 27.1189
v  -20.1305 34.7797 19.3772
v  -21.7466 31.1902 20.9825
v  -4.2132 31.3991 28.9638
v  21.4851 13.3641 21.4539
v  0.0000 13.8515 30.4957
v  0.0000 6.8619 32.3128
v  22.7323 6.8619 22.7323
v  -21.4851 13.3641 21.4539
v  -22.7323 6.8619 22.7323
v  -27.6626 34.2937 -0.0000
v  -28.5629 30.6410 -0.0000
v  -22.0367 33.0875 -16.1981
v  -20.8449 27.8546 -19.1713
v  -28.0473 12.2759 1.2685
v  -30.1118 6.8619 -0.0000
v  -23.3240 11.2084 -20.9277
v  -21.5686 6.8619 -21.0002
v  -18.2282 32.9495 -21.3716
v  -0.7493 32.9393 -28.7479
v  -0.7493 29.8603 -29.8256
v  -20.1861 30.0697 -20.6390
v  20.0351 34.3288 -19.6844
v  20.2480 30.0917 -20.9825
v  -19.5918 11.0680 -23.2154
v  0.3312 10.6497 -32.2833
v  0.0000 6.8619 -32.3128
v  -20.4850 6.8619 -22.2030
v  21.8974 11.1193 -20.1855
v  22.7323 6.8619 -22.7323
v  25.3608 35.1248 0.1953
v  27.0643 30.6409 -0.0000
v  27.7385 12.2075 -0.0000
v  29.3906 6.8619 -2.2216
v  29.3906 6.8619 2.2216
v  0.0000 1.9000 29.1333
v  -20.4967 1.9028 20.4967
v  17.1093 43.2842 16.9108
v  22.8250 36.7634 0.8542
v  22.5636 42.8760 1.4042
v  1.4681 42.9267 17.6429
v  -17.2872 42.8760 -0.0000
v  -25.0234 36.5925 -0.0000
v  -12.8260 43.2842 12.0767
v  -0.5056 42.9439 17.0295
v  19.2094 37.0503 -18.1856
v  17.8285 43.2842 -14.2692
v  -0.9805 35.2073 -27.1949
v  -0.8616 42.8760 -16.3424
v  -19.3392 35.3233 -19.5226
v  -12.8260 43.2842 -12.0767
v  -0.7493 47.1410 -10.1124
v  1.4563 25.1339 24.4388
v  19.6541 28.6522 18.9935
v  -17.4743 24.0979 18.1095
v  -26.4177 22.4161 1.4599
v  -21.3993 21.7438 -16.4333
v  -23.4794 20.8682 -12.1594
v  -1.4563 24.8714 -28.5650
v  -18.6549 22.8091 -18.9831
v  18.9190 27.7231 -21.1978
v  25.1037 28.8187 -1.4599
v  1.0547 22.0453 28.2946
v  21.3598 24.7736 20.9116
v  -20.0727 20.4957 20.5232
v  0.3803 17.3758 -28.6461
v  -19.1015 19.9803 -17.8775
v  21.6682 23.3260 -22.3966
v  29.3332 24.4312 -1.9907
v  21.6920 22.6970 21.3328
v  0.0731 11.8735 -28.3580
v  -18.6969 12.3111 -19.9525
v  21.3889 18.9338 -20.9337
v  28.4220 20.1964 -1.5903
v  -20.8477 12.3478 -19.0216
v  0.0743 31.3991 25.5949
v  0.0743 35.1295 24.1812
v  0.1264 42.9056 14.1160
v  -23.7697 34.9543 -0.4060
v  18.6655 35.0650 -17.8552
v  -0.2186 34.9034 -25.4171
v  -18.4812 34.9352 -18.8767
v  -18.2353 33.0185 -18.3268
v  -19.6559 28.9654 -18.8585
v  -20.5700 11.1228 -20.9573
v  -20.7120 6.8619 -20.7749
v  -17.7036 22.6873 -17.7805
v  -21.2859 19.8206 -16.5001
v  -18.1630 20.3239 -16.7057
v  -17.9857 12.3427 -18.2035
v  -20.4233 20.7822 -15.2793
v  19.9234 20.2733 -20.5147
v  26.9890 21.4821 -1.2926
v  22.6945 -0.0000 -0.0000
v  27.1526 7.9300 -0.0000
# 118 vertices

vn 0.1559 0.9753 0.1564
vn -0.0001 1.0000 0.0025
vn 0.0960 0.9486 0.3016
vn 0.0418 0.9116 0.4090
vn -0.2600 0.9298 0.2606
vn 0.2431 0.9700 -0.0046
vn 0.1646 0.9716 -0.1702
vn -0.2713 0.9312 -0.2436
vn -0.3779 0.9259 -0.0000
vn 0.4312 -0.8451 0.3160
vn -0.0052 -0.9527 0.3040
vn -0.0000 -1.0000 -0.0000
vn 0.5836 -0.7852 -0.2073
vn -0.2175 -0.9560 0.1969
vn -0.4511 -0.8924 -0.0045
vn 0.5836 -0.7852 0.2073
vn -0.0363 -0.8200 -0.5712
vn 0.4222 -0.8222 -0.3818
vn -0.4727 -0.8219 -0.3179
vn 0.6911 0.4100 0.5952
vn -0.1096 0.5827 0.8053
vn -0.1159 -0.0636 0.9912
vn 0.7239 -0.0841 0.6847
vn 0.2357 0.5284 0.8156
vn -0.5648 0.6440 0.5160
vn -0.7488 -0.0239 0.6624
vn -0.0203 -0.0857 0.9961
vn 0.7426 0.1330 0.6564
vn -0.0132 0.2569 0.9664
vn -0.0000 -0.1436 0.9896
vn 0.7076 -0.1794 0.6835
vn -0.7231 0.2477 0.6448
vn -0.7269 -0.1355 0.6732
vn -0.7339 0.6792 -0.0106
vn -0.9993 0.0256 -0.0259
vn -0.7841 0.3808 -0.4901
vn -0.2842 -0.1377 -0.9488
vn -0.9651 0.2583 0.0436
vn -0.9847 -0.1649 -0.0562
vn -0.6498 0.3646 -0.6670
vn -0.3504 -0.3036 -0.8860
vn -0.6260 0.4381 -0.6451
vn -0.0155 0.5923 -0.8056
vn -0.0031 0.0391 -0.9992
vn -0.9387 0.2042 -0.2777
vn 0.6006 0.6168 -0.5087
vn 0.7508 -0.0614 -0.6576
vn -0.5684 0.4925 -0.6591
vn 0.0544 0.5189 -0.8531
vn -0.0400 -0.2568 -0.9656
vn -0.7910 -0.2289 -0.5674
vn 0.7623 0.2667 -0.5897
vn 0.7140 -0.0229 -0.6998
vn 0.7931 0.6091 0.0030
vn 0.9744 -0.2227 0.0313
vn 0.9946 0.1034 0.0121
vn 0.9743 -0.1328 0.1817
vn 0.9743 -0.1328 -0.1817
vn 0.0223 -0.6940 0.7196
vn -0.5552 -0.6950 0.4569
vn 0.4474 0.6801 0.5807
vn 0.8609 0.5071 0.0410
vn 0.8316 0.5544 0.0325
vn -0.5315 0.6560 0.5359
vn -0.5849 0.8111 -0.0000
vn -0.9909 0.1349 -0.0027
vn -0.4159 0.8170 0.3994
vn 0.5740 0.6240 0.5303
vn 0.7563 0.1146 -0.6441
vn 0.4810 0.7338 -0.4797
vn -0.0138 -0.1989 -0.9799
vn -0.0642 0.8191 -0.5700
vn -0.7362 -0.1479 -0.6604
vn -0.4079 0.8199 -0.4017
vn 0.0019 0.9097 -0.4152
vn -0.0388 0.2050 0.9780
vn 0.7730 -0.0330 0.6335
vn -0.6187 0.0963 0.7797
vn -0.9910 -0.0086 0.1339
vn -0.5267 -0.5443 -0.6529
vn -0.9141 -0.0517 -0.4021
vn -0.1196 -0.1240 -0.9850
vn -0.9611 -0.1332 -0.2418
vn 0.6290 0.1453 -0.7637
vn 0.9977 -0.0235 -0.0638
vn -0.0327 0.5152 0.8564
vn 0.6412 0.3957 0.6574
vn -0.6356 0.4421 0.6329
vn -0.0571 -0.0403 -0.9976
vn -0.9990 0.0056 -0.0434
vn 0.7058 -0.0331 -0.7076
vn 0.9981 0.0490 -0.0362
vn 0.7240 0.1292 0.6776
vn -0.0169 0.6529 -0.7572
vn -0.9844 0.1367 -0.1109
vn 0.6615 0.3399 -0.6685
vn 0.9382 0.3363 -0.0817
vn -0.1562 0.7290 -0.6665
vn -0.0209 0.1052 0.9942
vn 0.0391 0.6613 0.7491
vn -0.0020 0.7512 0.6601
vn -0.9040 0.4210 -0.0743
vn 0.5966 0.5514 -0.5831
vn 0.0919 -0.2234 -0.9704
vn -0.6512 -0.5256 -0.5473
vn -0.8518 0.0434 -0.5221
vn -0.6372 -0.0665 -0.7678
vn -0.3607 0.6953 -0.6216
vn -0.5339 -0.2885 -0.7948
vn -0.9780 -0.0606 -0.1997
vn -0.5184 0.4928 -0.6988
vn -0.8880 0.1946 -0.4165
vn -0.6845 0.5027 -0.5279
vn -0.6380 -0.0454 -0.7687
vn 0.6834 -0.0006 -0.7301
vn 0.9942 0.0997 -0.0393
vn 0.2474 -0.9689 -0.0000
vn 0.9518 -0.3068 -0.0000
# 118 vertex normals

vt 0.8922 0.9348 0.1578
vt 0.8837 0.9651 0.0065
vt 0.8896 0.9348 0.1435
vt 0.8892 0.9348 0.1467
vt 0.8863 0.9348 0.1674
vt 0.8949 0.9348 0.1518
vt 0.8977 0.9348 0.1578
vt 0.8811 0.9345 0.1674
vt 0.8837 0.9346 0.1649
vt 0.8926 0.0344 0.4506
vt 0.8898 0.0344 0.3976
vt 0.8949 0.0344 0.0061
vt 0.8946 0.0344 0.4325
vt 0.8864 0.0344 0.4406
vt 0.8847 0.0344 0.3943
vt 0.8952 0.0344 0.4325
vt 0.9005 0.0344 0.4320
vt 0.8976 0.0344 0.4531
vt 0.9032 0.0344 0.4300
vt 0.8922 0.7054 0.4449
vt 0.8898 0.7054 0.4244
vt 0.8898 0.6341 0.4526
vt 0.8922 0.6301 0.4747
vt 0.8890 0.7054 0.4216
vt 0.8863 0.6987 0.4475
vt 0.8863 0.6301 0.4844
vt 0.8888 0.6341 0.4528
vt 0.8923 0.2897 0.4950
vt 0.8894 0.2990 0.4719
vt 0.8894 0.1655 0.5000
vt 0.8923 0.1655 0.5238
vt 0.8864 0.2897 0.4860
vt 0.8864 0.1655 0.5149
vt 0.8837 0.6891 0.4588
vt 0.8837 0.6194 0.4740
vt 0.8815 0.6655 0.4422
vt 0.8813 0.6094 0.4646
vt 0.8838 0.2689 0.4657
vt 0.8837 0.1655 0.5000
vt 0.8812 0.2485 0.5038
vt 0.8812 0.1655 0.5023
vt 0.9032 0.6637 0.4467
vt 0.9006 0.6635 0.4449
vt 0.9006 0.6047 0.4616
vt 0.9034 0.6087 0.4615
vt 0.8975 0.6901 0.4586
vt 0.8976 0.6092 0.4747
vt 0.9033 0.2458 0.4865
vt 0.9005 0.2378 0.4997
vt 0.9005 0.1655 0.5000
vt 0.9033 0.1655 0.4821
vt 0.8974 0.2468 0.4873
vt 0.8976 0.1655 0.5238
vt 0.8949 0.7053 0.4323
vt 0.8949 0.6196 0.4609
vt 0.8949 0.2676 0.4722
vt 0.8952 0.1655 0.5012
vt 0.8947 0.1655 0.5012
vt 0.8894 0.0707 0.4508
vt 0.8864 0.0707 0.4638
vt 0.8813 0.0344 0.4318
vt 0.8923 0.8611 0.3933
vt 0.8948 0.7366 0.3899
vt 0.8947 0.8533 0.3859
vt 0.8897 0.8543 0.2747
vt 0.8837 0.8531 0.2845
vt 0.8837 0.7330 0.4145
vt 0.8863 0.8611 0.2807
vt 0.8893 0.8546 0.2635
vt 0.8975 0.7421 0.4328
vt 0.8972 0.8611 0.3771
vt 0.9006 0.7069 0.4209
vt 0.9007 0.8533 0.2530
vt 0.9035 0.7091 0.4393
vt 0.9036 0.8611 0.2807
vt 0.8811 0.8603 0.2807
vt 0.8810 0.7082 0.4393
vt 0.9007 0.9348 0.1566
vt 0.9036 0.9348 0.1674
vt 0.8782 0.9348 0.1566
vt 0.8896 0.5145 0.3794
vt 0.8924 0.5817 0.4467
vt 0.8865 0.4947 0.4016
vt 0.8839 0.4626 0.4385
vt 0.8815 0.4489 0.4355
vt 0.8821 0.4328 0.4317
vt 0.9007 0.5094 0.4424
vt 0.9034 0.4701 0.4252
vt 0.8978 0.5639 0.4611
vt 0.8951 0.5848 0.4286
vt 0.8554 0.8733 0.3794
vt 0.8553 0.8102 0.4385
vt 0.8585 0.8659 0.4878
vt 0.8585 0.9451 0.4467
vt 0.8519 0.8521 0.4016
vt 0.8519 0.7785 0.4589
vt 0.8491 0.8178 0.4385
vt 0.8677 0.8679 0.4424
vt 0.8674 0.7148 0.4434
vt 0.8709 0.7680 0.4192
vt 0.8708 0.8258 0.4252
vt 0.8645 0.9261 0.4611
vt 0.8643 0.8363 0.5071
vt 0.8615 0.9485 0.4286
vt 0.8616 0.8589 0.5000
vt 0.8895 0.4555 0.4385
vt 0.8923 0.4679 0.4963
vt 0.8864 0.4259 0.4589
vt 0.9005 0.3663 0.4434
vt 0.9005 0.2612 0.4389
vt 0.9034 0.2695 0.4362
vt 0.9036 0.4160 0.4192
vt 0.8975 0.3960 0.4884
vt 0.8951 0.4202 0.4843
vt 0.9264 0.2875 0.4530
vt 0.9265 0.2645 0.5038
vt 0.9295 0.2863 0.4657
vt 0.9229 0.2776 0.4389
vt 0.9229 0.2529 0.4997
vt 0.9261 0.2614 0.4865
vt 0.9261 0.2865 0.4362
vt 0.9194 0.2624 0.4873
vt 0.9262 0.7399 0.0065
vt 0.9261 0.7093 0.1467
vt 0.9265 0.7093 0.1435
vt 0.9265 0.2650 0.3794
vt 0.9263 0.3915 0.3961
vt 0.9256 0.3915 0.4528
vt 0.9268 0.4668 0.4244
vt 0.9263 0.4668 0.3742
vt 0.9267 0.3915 0.4526
vt 0.9258 0.4668 0.4216
vt 0.9263 0.6238 0.2186
vt 0.9261 0.6246 0.2635
vt 0.9266 0.6243 0.2747
vt 0.9136 0.7472 0.4449
vt 0.9166 0.7471 0.4323
vt 0.9165 0.7802 0.3899
vt 0.9293 0.7773 0.4145
vt 0.9292 0.7442 0.3935
vt 0.9322 0.7412 0.4475
vt 0.9195 0.7459 0.4226
vt 0.9195 0.7860 0.4328
vt 0.9229 0.7426 0.3933
vt 0.9231 0.7488 0.4209
vt 0.9262 0.7433 0.4220
vt 0.9262 0.7511 0.4393
vt 0.9293 0.7309 0.4588
vt 0.9196 0.7310 0.4586
vt 0.9230 0.7030 0.4449
vt 0.9259 0.7032 0.4467
vt 0.9269 0.7060 0.4422
vt 0.9262 0.7046 0.4131
vt 0.9263 0.6492 0.4362
vt 0.9266 0.6466 0.4646
vt 0.9262 0.2625 0.4696
vt 0.9262 0.1765 0.4694
vt 0.9265 0.1765 0.5023
vt 0.9259 0.0379 0.4300
vt 0.9261 0.1765 0.4821
vt 0.9262 0.4960 0.4008
vt 0.9268 0.4769 0.4355
vt 0.9268 0.4381 0.4346
vt 0.9264 0.4483 0.3954
vt 0.9262 0.2871 0.4088
vt 0.9262 0.4984 0.4252
vt 0.9264 0.4413 0.4192
vt 0.9268 0.4575 0.4118
vt 0.9262 0.6450 0.4615
vt 0.8812 0.0344 0.4137
vt 0.9193 0.4846 0.4385
vt 0.9225 0.4977 0.4963
vt 0.9225 0.5396 0.4878
vt 0.9284 0.5104 0.5071
vt 0.9284 0.4488 0.4658
vt 0.9316 0.3903 0.4434
vt 0.9256 0.5327 0.5000
vt 0.9256 0.4732 0.4601
vt 0.9283 0.4217 0.4884
vt 0.9256 0.4472 0.4843
vt 0.9262 0.0379 0.0061
vt 0.9262 0.0379 0.3875
vt 0.9259 0.0379 0.4325
vt 0.9262 0.2844 0.4722
vt 0.9262 0.1980 0.4624
vt 0.9265 0.1765 0.5012
vt 0.9266 0.0379 0.4325
vt 0.9260 0.1765 0.5012
vt 0.9275 0.4593 0.4317
vt 0.8814 0.4126 0.4346
vt 0.8812 0.2702 0.4530
vt 0.8587 0.3600 0.4407
vt 0.8552 0.3988 0.4508
vt 0.8552 0.3600 0.3971
vt 0.8519 0.3989 0.4638
vt 0.8519 0.3600 0.4040
vt 0.8489 0.3600 0.3932
# 197 texture coords

o stone_small_MED_alt
g stone_small_MED_alt
s 8
f 1/1/1 2/2/2 3/3/3 
f 4/4/4 2/2/2 5/5/5 
f 6/6/6 7/7/7 2/2/2 
f 2/2/2 8/8/8 9/9/9 
s 1
f 10/10/10 11/11/11 12/12/12 13/13/13 
f 11/11/11 14/14/14 15/15/15 12/12/12 
f 16/16/16 12/12/12 17/17/17 18/18/18 
f 12/12/12 19/19/19 17/17/17 
s 4
f 20/20/20 21/21/21 22/22/22 23/23/23 
f 24/24/24 25/25/25 26/26/26 27/27/27 
s 3
f 28/28/28 29/29/29 30/30/30 31/31/31 
f 29/29/29 32/32/32 33/33/33 30/30/30 
s 4
f 25/25/25 34/34/34 35/35/35 26/26/26 
f 34/34/34 36/36/36 37/37/37 35/35/35 
s 3
f 32/32/32 38/38/38 39/39/39 33/33/33 
s 1
f 38/38/38 40/40/40 41/41/41 39/39/39 
s 4
f 42/42/42 43/43/43 44/44/44 45/45/45 
f 43/43/43 46/46/46 47/47/47 44/44/44 
s 1
f 48/48/48 49/49/49 50/50/50 51/51/51 
f 49/49/49 52/52/52 53/53/53 50/50/50 
s 4
f 46/46/46 54/54/54 55/55/55 47/47/47 
f 54/54/54 20/20/20 23/23/23 55/55/55 
s 3
f 52/52/52 56/56/56 57/57/57 53/53/53 
s 19
f 56/56/56 28/28/28 31/31/31 58/58/58 
s 1
f 10/10/10 31/31/31 30/30/30 59/59/59 
f 13/13/13 58/58/58 31/31/31 10/10/10 
f 59/59/59 30/30/30 33/33/33 60/60/60 
f 60/60/60 33/33/33 39/39/39 15/15/15 
f 17/17/17 50/50/50 53/53/53 18/18/18 
f 18/18/18 53/53/53 57/57/57 16/16/16 
f 15/15/15 39/39/39 41/41/41 19/61/19 
f 19/19/19 51/51/51 50/50/50 17/17/17 
s 24
f 61/62/61 20/20/20 62/63/62 63/64/63 
s 12
f 64/65/64 21/21/21 20/20/20 61/62/61 
s 8
f 65/66/65 66/67/66 25/25/25 67/68/67 
s 12
f 67/68/67 25/25/25 24/24/24 68/69/68 
s 8
f 63/64/63 62/63/62 69/70/69 70/71/70 
f 70/71/70 69/70/69 71/72/71 72/73/72 
f 72/73/72 71/72/71 73/74/73 74/75/74 
f 74/76/74 73/77/73 66/67/66 65/66/65 
f 1/1/1 61/62/61 63/64/63 6/6/6 
f 3/3/3 64/65/64 61/62/61 1/1/1 
f 9/9/9 65/66/65 67/68/67 5/5/5 
f 5/5/5 67/68/67 68/69/68 4/4/4 
f 6/6/6 63/64/63 70/71/70 7/7/7 
f 7/7/7 70/71/70 72/73/72 75/78/75 
f 75/78/75 72/73/72 74/75/74 8/79/8 
f 8/8/8 74/76/74 65/66/65 9/9/9 
f 1/1/1 6/6/6 2/2/2 
f 2/2/2 9/9/9 5/5/5 
f 7/7/7 75/80/75 2/2/2 
f 2/2/2 75/80/75 8/8/8 
s 4
f 22/22/22 76/81/76 77/82/77 23/23/23 
f 26/26/26 78/83/78 76/81/76 27/27/27 
f 35/35/35 79/84/79 78/83/78 26/26/26 
f 37/37/37 80/85/80 81/86/81 35/35/35 
f 44/44/44 82/87/82 83/88/83 45/45/45 
f 47/47/47 84/89/84 82/87/82 44/44/44 
f 55/55/55 85/90/85 84/89/84 47/47/47 
f 23/23/23 77/82/77 85/90/85 55/55/55 
s 6
f 76/91/76 86/92/86 87/93/87 77/94/77 
f 78/95/78 88/96/88 86/92/86 76/91/76 
f 79/97/79 88/96/88 78/95/78 
f 82/98/82 89/99/89 90/100/90 83/101/83 
f 84/102/84 91/103/91 89/99/89 82/98/82 
f 85/104/85 92/105/92 91/103/91 84/102/84 
f 77/94/77 87/93/87 92/105/92 85/104/85 
s 2
f 86/106/86 29/29/29 28/28/28 93/107/93 
f 88/108/88 32/32/32 29/29/29 86/106/86 
f 79/84/79 38/38/38 32/32/32 88/108/88 
f 81/86/81 38/38/38 79/84/79 
f 89/109/89 94/110/94 95/111/95 90/112/90 
f 96/113/96 52/52/52 94/110/94 89/109/89 
f 97/114/97 56/56/56 52/52/52 96/113/96 
f 93/107/93 28/28/28 56/56/56 97/114/97 
s 1
f 98/115/98 40/116/40 38/117/38 
f 94/118/94 49/119/49 48/120/48 95/121/95 
f 52/122/52 49/119/49 94/118/94 
s 24
f 2/123/2 4/124/4 3/125/3 
s 20
f 76/126/76 99/127/99 27/128/27 
f 21/129/21 100/130/100 99/127/99 22/131/22 
s 28
f 24/132/24 100/130/100 101/133/101 68/134/68 
s 24
f 3/125/3 4/124/4 101/133/101 64/135/64 
s 20
f 76/126/76 22/131/22 99/127/99 
f 100/130/100 24/132/24 27/128/27 99/127/99 
s 28
f 100/130/100 21/129/21 64/135/64 101/133/101 
s 24
f 4/124/4 68/134/68 101/133/101 
s 12
f 20/136/20 54/137/54 62/138/62 
s 8
f 66/139/66 102/140/102 25/141/25 
f 62/138/62 54/137/54 103/142/103 69/143/69 
f 69/143/69 103/142/103 104/144/104 71/145/71 
f 71/145/71 104/144/104 105/146/105 73/147/73 
f 73/147/73 105/146/105 102/140/102 66/139/66 
s 4
f 102/140/102 34/148/34 25/141/25 
f 54/137/54 46/149/46 103/142/103 
f 103/142/103 46/149/46 43/150/43 104/144/104 
s 20
f 104/144/104 43/150/43 42/151/42 105/146/105 
f 105/146/105 36/152/36 34/148/34 102/140/102 
f 36/152/36 106/153/106 107/154/107 37/155/37 
s 17
f 40/116/40 108/156/108 109/157/109 41/158/41 
f 19/159/19 109/157/109 51/160/51 
s 20
f 37/155/37 107/154/107 110/161/110 80/162/80 
s 18
f 111/163/111 112/164/112 113/165/113 98/115/98 
s 17
f 98/115/98 113/165/113 108/156/108 40/116/40 
s 20
f 83/166/83 90/167/90 112/164/112 110/161/110 
f 110/161/110 112/164/112 114/168/114 80/162/80 
f 105/146/105 42/151/42 106/153/106 
f 106/153/106 36/152/36 105/146/105 
f 106/153/106 42/151/42 45/169/45 107/154/107 
s 17
f 108/156/108 48/120/48 51/160/51 109/157/109 
f 19/159/19 41/158/41 109/157/109 
s 20
f 107/154/107 45/169/45 83/166/83 110/161/110 
s 18
f 112/164/112 90/167/90 95/121/95 113/165/113 
s 17
f 113/165/113 95/121/95 48/120/48 108/156/108 
s 1
f 12/12/12 15/15/15 19/170/19 
s 6
f 86/171/86 93/172/93 87/173/87 
s 4
f 91/174/91 115/175/115 89/176/89 
f 92/177/92 116/178/116 115/175/115 91/174/91 
f 87/173/87 93/172/93 116/178/116 92/177/92 
s 2
f 115/175/115 96/179/96 89/176/89 
f 116/178/116 97/180/97 96/179/96 115/175/115 
f 93/172/93 97/180/97 116/178/116 
s 16
f 12/181/12 117/182/117 13/183/13 
s 18
f 56/184/56 118/185/118 57/186/57 
s 16
f 57/186/57 118/185/118 117/182/117 16/187/16 
f 12/181/12 16/187/16 117/182/117 
s 18
f 56/184/56 58/188/58 118/185/118 
s 16
f 118/185/118 58/188/58 13/183/13 117/182/117 
s 20
f 80/162/80 114/168/114 81/189/81 
s 18
f 112/164/112 111/163/111 114/168/114 
f 114/168/114 111/163/111 81/189/81 
s 2
f 81/86/81 111/190/111 98/191/98 38/38/38 
s 6
f 81/86/81 79/84/79 35/35/35 
s 1
f 10/192/10 59/193/59 11/194/11 
f 11/194/11 59/193/59 60/195/60 14/196/14 
f 14/196/14 60/195/60 15/197/15 
# 96 polygons - 40 triangles

